{"title":"Despicable Me 2 (2013) HDTS x264 - Exclusive","uid":8665153,"size":726925560,"categoryP":"video","categoryS":"movies","magnet":"?xt=urn:btih:cc2d0ec9fc98660a32d60fb358ccbc2ad52f4c11&amp;dn=Despicable+Me+2+%282013%29+HDTS+x264+-+Exclusive&amp;tr=udp%3A%2F%2Ftracker.openbittorrent.com%3A80&amp;tr=udp%3A%2F%2Fopen.demonii.com%3A1337&amp;tr=udp%3A%2F%2Ftracker.coppersurfer.tk%3A6969&amp;tr=udp%3A%2F%2Fexodus.desync.com%3A6969","seeders":12,"leechers":1,"uploader":"tykoon123","files":-1,"time":1373395331,"description":"\n\nInfo:\nFormat : mpeg4\nFormat profile : Base Media\nCodec ID : isom\nFile size : 690MiB\nDuration : 1h 33mn\nOverall bit rate mode : Variable\nOverall bit rate : 1 033 Kbps\nEncoded date : UTC 2013-07-09 15:45:35\nTagged date : UTC 2013-07-09 15:45:35\n\nVideo\nID : 1\nFormat : AVC\nFormat/Info : Advanced Video Codec\nFormat profile : &lt;a class=&quot;__cf_email__&quot; href=&quot;/cdn-cgi/l/email-protection&quot; data-cfemail=&quot;dd95b4bab59d91e9f3ec&quot;&gt;[email&amp;#160;protected]&lt;/a&gt;&lt;script cf-hash='f9e31' type=&quot;text/javascript&quot;&gt;\n/* &lt;![CDATA[ */!function(){try{var t=&quot;currentScript&quot;in document?document.currentScript:function(){for(var t=document.getElementsByTagName(&quot;script&quot;),e=t.length;e--;)if(t[e].getAttribute(&quot;cf-hash&quot;))return t[e]}();if(t&amp;&amp;t.previousSibling){var e,r,n,i,c=t.previousSibling,a=c.getAttribute(&quot;data-cfemail&quot;);if(a){for(e=&quot;&quot;,r=parseInt(a.substr(0,2),16),n=2;a.length-n;n+=2)i=parseInt(a.substr(n,2),16)^r,e+=String.fromCharCode(i);e=document.createTextNode(e),c.parentNode.replaceChild(e,c)}}}catch(u){}}();/* ]]&gt; */&lt;/script&gt;\nFormat settings, CABAC : Yes\nFormat settings, ReFrames : 3 frames\nCodec ID : avc1\nCodec ID/Info : Advanced Video Coding\nDuration : 1h 33mn\nBit rate mode : Variable\nBit rate : 938 Kbps\nMaximum bit rate : 40.0 Mbps\nWidth : 720 pixels\nHeight : 384 pixels\nDisplay aspect ratio : 1.85:1\nFrame rate mode : Constant\nFrame rate : 20.000 fps\nColor space : YUV\nChroma subsampling : 4:2:0\nBit depth : 8 bits\nScan type : Progressive\nBits/(Pixel*Frame) : 0.170\nStream size : 620MiB (91%)\nWriting library : x264 core 133 r2334 a3ac64b\n\nAudio\nID : 2\nFormat : AAC\nFormat/Info : Advanced Audio Codec\nFormat profile : LC\nCodec ID : 40\nDuration : 1h 33mn\nBit rate mode : Variable\nBit rate : 91.7 Kbps\nMaximum bit rate : 143 Kbps\nChannel(s) : 2 channels\nChannel positions : Front: L R\nSampling rate : 44.1 KHz\nCompression mode : Lossy\nStream size : 61.5 MiB (9%)\nLanguage : English\nEncoded date : UTC 2013-07-09 15:41:10\nTagged date : UTC 2013-07-09 15:45:56\n\nScreens: &lt;a href=&quot;\nhttp://image.torrent-invites.com/images/906yXRp3Yon.png&quot; rel=&quot;nofollow&quot; target=&quot;_NEW&quot;&gt;\nhttp://image.torrent-invites.com/images/906yXRp3Yon.png&lt;/a&gt; &lt;a href=&quot;\nhttp://image.torrent-invites.com/images/776OhYJ5G9K.png&quot; rel=&quot;nofollow&quot; target=&quot;_NEW&quot;&gt;\nhttp://image.torrent-invites.com/images/776OhYJ5G9K.png&lt;/a&gt; &lt;a href=&quot;\nhttp://image.torrent-invites.com/images/707UOIlDnIC.png&quot; rel=&quot;nofollow&quot; target=&quot;_NEW&quot;&gt;\nhttp://image.torrent-invites.com/images/707UOIlDnIC.png&lt;/a&gt; &lt;a href=&quot;\nhttp://image.torrent-invites.com/images/977dom4Ejws.png&quot; rel=&quot;nofollow&quot; target=&quot;_NEW&quot;&gt;\nhttp://image.torrent-invites.com/images/977dom4Ejws.png&lt;/a&gt; &lt;a href=&quot;\nhttp://image.torrent-invites.com/images/717W23va6rR.png&quot; rel=&quot;nofollow&quot; target=&quot;_NEW&quot;&gt;\nhttp://image.torrent-invites.com/images/717W23va6rR.png&lt;/a&gt; &lt;a href=&quot;\nhttp://image.torrent-invites.com/images/446Su2FxFjK.png&quot; rel=&quot;nofollow&quot; target=&quot;_NEW&quot;&gt;\nhttp://image.torrent-invites.com/images/446Su2FxFjK.png&lt;/a&gt;","torrent":{"xt":"urn:btih:cc2d0ec9fc98660a32d60fb358ccbc2ad52f4c11","amp;dn":"Despicable+Me+2+%282013%29+HDTS+x264+-+Exclusive","amp;tr":["udp%3A%2F%2Ftracker.openbittorrent.com%3A80","udp%3A%2F%2Fopen.demonii.com%3A1337","udp%3A%2F%2Ftracker.coppersurfer.tk%3A6969","udp%3A%2F%2Fexodus.desync.com%3A6969"],"infoHash":"cc2d0ec9fc98660a32d60fb358ccbc2ad52f4c11","infoHashBuffer":{"type":"Buffer","data":[204,45,14,201,252,152,102,10,50,214,15,179,88,204,188,42,213,47,76,17]},"announce":[],"urlList":[]}}